<?xml version="1.0" encoding="UTF-8"?><svg xmlns="http://www.w3.org/2000/svg" viewBox="0 0 406.19 96.41"><defs><style>.d,.e{fill:#fff;}.f,.g{fill:#2b7538;}.e{stroke-width:4.24px;}.e,.h{stroke:#2b7538;stroke-linecap:round;stroke-linejoin:round;}.h{fill:none;stroke-width:4.71px;}.g{fill-rule:evenodd;}</style></defs><g id="a"/><g id="b"><g id="c"><g><rect class="d" x="36.75" y="56.88" width="23.52" height="35.54"/><path class="f" d="M59.24,96.41h-21.44c-1.38,0-2.5-1.12-2.5-2.5v-18.77l-5.2-7.28c-.8-1.13-.54-2.69,.58-3.49,1.13-.8,2.69-.54,3.49,.58l5.67,7.94c.3,.42,.47,.93,.47,1.46v17.07h16.43v-17.01c0-.52,.16-1.03,.47-1.45l6.91-9.69c.8-1.13,2.37-1.39,3.49-.59,1.13,.8,1.39,2.37,.59,3.49l-6.44,9.03v18.71c0,1.38-1.12,2.5-2.5,2.5Z"/><path class="e" d="M34.3,12.87c.46-.7,7.5-10.96,20.11-10.74,8.9,.15,17.04,5.47,20.95,13.67,12.18,1.75,21.04,12.58,20.41,24.59-.66,12.44-11.3,22.46-24.05,22.32-1.14,1.16-5.28,5.11-12,5.85-7.18,.79-12.35-2.64-13.61-3.52-.94,.67-7.45,5.17-15.87,3.1-9.18-2.25-12.8-10.37-13.19-11.28-9.63-3.98-15.63-13.67-14.86-23.87,.79-10.38,8.39-18.63,17.37-21.07,6.64-1.8,12.36,.03,14.74,.95Z"/><path class="h" d="M87.36,41.18c-.44,1.67-1.67,5.41-5.11,8.73-3.94,3.8-8.4,4.76-10.06,5.03"/></g><g><path class="g" d="M304.31,67.41h-18.51c-1.92,.01-3.84-.14-5.74-.45-2.09-.35-3.96-.92-5.63-1.69-1.37-.63-2.65-1.45-3.8-2.44-2.2-1.94-3.76-4.5-4.48-7.34-.44-1.6-.69-3.37-.76-5.29-.01-.32-.02-.64-.02-.96-.01-1.8,.17-3.59,.55-5.35,.77-3.4,2.33-6.14,4.7-8.21,1.78-1.53,3.86-2.67,6.1-3.34,2.6-.82,5.62-1.23,9.06-1.21l18.01,.1v6.4h-17.46c-1.18,0-2.36,.07-3.52,.24-1.18,.17-2.24,.44-3.19,.8-1.07,.39-2.07,.97-2.94,1.72-2.1,1.83-3.15,4.79-3.15,8.86,0,1.09,.08,2.18,.26,3.25,.43,2.44,1.4,4.31,2.89,5.63,.95,.82,2.06,1.45,3.25,1.85,.98,.34,2.07,.59,3.28,.75,1.04,.13,2.09,.19,3.13,.18h17.96v6.5Z"/><path class="g" d="M262.88,67.41h-17.26c-4.47,0-7.96-1.11-10.46-3.33-1.58-1.42-2.7-3.28-3.21-5.34-.36-1.33-.54-2.81-.54-4.44,0-1.29,.12-2.58,.39-3.84,.36-1.63,.96-3.05,1.82-4.26,.45-.63,.97-1.21,1.55-1.73,1.39-1.21,3.04-2.1,4.82-2.6,1.66-.49,3.54-.73,5.64-.73h16.76v5.75h-16.76c-2.17,0-3.83,.6-4.98,1.8-.53,.56-.93,1.23-1.18,1.96-.2,.56-.35,1.2-.44,1.89-.07,.58-.11,1.17-.1,1.75,0,.68,.05,1.37,.15,2.04,.11,.7,.29,1.33,.52,1.89,.25,.6,.61,1.15,1.05,1.62,.71,.73,1.6,1.25,2.58,1.5,.58,.16,1.22,.26,1.91,.29,.16,0,.33,.01,.49,.01h17.26v5.75Z"/><rect class="f" x="398.18" y="31.38" width="8.01" height="35.78"/><rect class="f" x="178.47" y="31.38" width="7.26" height="35.78"/><path class="g" d="M385.82,53.15c1.6-.56,3.02-1.55,4.11-2.86,.4-.48,.74-1.01,1.02-1.57,.82-1.63,1.23-3.64,1.23-6.04,0-1.73-.21-3.26-.64-4.59-.45-1.5-1.29-2.85-2.44-3.92-.52-.47-1.09-.89-1.71-1.23-1.04-.59-2.22-1.01-3.55-1.27-1.11-.21-2.25-.31-3.38-.3h-29.97v35.78h8.01v-13.16h16.51l7.66,13.16h9.11l-8.26-13.41c.78-.13,1.55-.33,2.3-.6Zm-3.68-6.22c-.7,.37-1.57,.56-2.62,.56l-21.02-.05v-9.56h21.02c.22,0,.44,0,.65,.03,.46,.04,.88,.12,1.27,.24,.54,.16,1.04,.44,1.46,.82,.06,.06,.12,.11,.17,.18,.48,.52,.78,1.28,.92,2.26,.06,.43,.09,.86,.08,1.3,0,1.01-.13,1.85-.4,2.52-.17,.45-.43,.85-.78,1.18-.23,.21-.48,.39-.76,.54Z"/><path class="g" d="M173.38,53.66c-.16-.68-.4-1.33-.72-1.94-.34-.64-.78-1.23-1.3-1.75-.58-.57-1.24-1.05-1.95-1.43,2.2-1.53,3.3-3.95,3.3-7.26,0-.24,0-.48-.02-.71-.13-2.95-1.08-5.19-2.86-6.72-.8-.67-1.71-1.19-2.69-1.55-.87-.32-1.84-.56-2.92-.72-1.07-.15-2.15-.22-3.22-.21l-30.12,.1v35.68l31.12-.05c2.26,0,4.19-.28,5.79-.85,1.12-.38,2.16-.98,3.04-1.77,1.92-1.75,2.88-4.31,2.88-7.68,0-1.16-.11-2.21-.33-3.13Zm-34.49-15.88h21.17c.16,0,.31,0,.47,.01,2.03,.1,3.3,.84,3.82,2.23,.19,.53,.28,1.09,.27,1.66,0,.38-.03,.76-.1,1.13-.29,1.49-1.2,2.42-2.73,2.79-.56,.13-1.14,.19-1.72,.18h-21.17v-8.01Zm26.62,19.8c-.29,1.55-1.18,2.52-2.69,2.92-.58,.14-1.17,.21-1.77,.2h-22.17v-8.51h22.17c3.04,0,4.55,1.4,4.55,4.2,0,.4-.03,.79-.1,1.18Z"/><path class="g" d="M227.89,53.51c-.05-1.39-.24-2.66-.56-3.81-.52-2.02-1.63-3.84-3.18-5.24-2.5-2.22-5.99-3.33-10.46-3.33h-9.26c-2.1,0-3.97,.24-5.64,.73-1.78,.5-3.43,1.38-4.82,2.6-.58,.51-1.1,1.09-1.55,1.73-.86,1.21-1.46,2.63-1.82,4.26-.27,1.26-.4,2.55-.39,3.84,0,1.63,.18,3.11,.54,4.44,.52,2.06,1.63,3.92,3.21,5.34,2.5,2.22,5.99,3.33,10.46,3.33h9.26c2.1,0,3.97-.24,5.64-.73,1.78-.5,3.43-1.38,4.82-2.6,.53-.47,1.01-.99,1.43-1.56,.91-1.23,1.56-2.69,1.93-4.37,.27-1.27,.4-2.56,.39-3.86,0-.26,0-.52-.01-.78Zm-8.02,4.35c-.25,.74-.66,1.42-1.2,1.99-1.15,1.2-2.81,1.8-4.98,1.8h-9.26c-.16,0-.33,0-.49-.01-.69-.03-1.33-.13-1.91-.29-.98-.26-1.88-.78-2.58-1.5-.45-.47-.8-1.02-1.05-1.62-.24-.56-.41-1.19-.52-1.89-.1-.68-.15-1.36-.15-2.04,0-.59,.03-1.17,.1-1.75,.09-.7,.24-1.33,.44-1.89,.25-.73,.65-1.4,1.18-1.96,1.15-1.2,2.81-1.8,4.98-1.8h9.26c.16,0,.33,0,.49,.01,.69,.03,1.33,.13,1.91,.29,.98,.26,1.88,.78,2.58,1.5,.46,.49,.82,1.05,1.07,1.67,.23,.56,.4,1.19,.51,1.9,.1,.67,.15,1.35,.14,2.03,0,1.39-.18,2.58-.53,3.56Z"/><path class="g" d="M345.23,53.51c-.05-1.39-.24-2.66-.56-3.81-.52-2.02-1.63-3.84-3.18-5.24-2.5-2.22-5.99-3.33-10.46-3.33h-9.26c-2.1,0-3.97,.24-5.64,.73-1.78,.5-3.43,1.38-4.82,2.6-.58,.51-1.1,1.09-1.55,1.73-.86,1.21-1.46,2.63-1.82,4.26-.27,1.26-.4,2.55-.39,3.84,0,1.63,.18,3.11,.54,4.44,.52,2.06,1.63,3.92,3.21,5.34,2.5,2.22,5.99,3.33,10.46,3.33h9.26c2.1,0,3.97-.24,5.64-.73,1.78-.5,3.43-1.38,4.82-2.6,.53-.47,1.01-.99,1.43-1.56,.91-1.23,1.56-2.69,1.93-4.37,.27-1.27,.4-2.56,.39-3.86,0-.26,0-.52-.01-.78Zm-8.02,4.35c-.25,.74-.66,1.42-1.2,1.99-1.15,1.2-2.81,1.8-4.98,1.8h-9.26c-.16,0-.33,0-.49-.01-.69-.03-1.33-.13-1.91-.29-.98-.26-1.88-.78-2.58-1.5-.45-.47-.8-1.02-1.05-1.62-.24-.56-.41-1.19-.52-1.89-.1-.68-.15-1.36-.15-2.04,0-.59,.03-1.17,.1-1.75,.09-.7,.24-1.33,.44-1.89,.25-.73,.65-1.4,1.18-1.96,1.15-1.2,2.81-1.8,4.98-1.8h9.26c.16,0,.33,0,.49,.01,.69,.03,1.33,.13,1.91,.29,.98,.26,1.88,.78,2.58,1.5,.46,.49,.82,1.05,1.07,1.67,.23,.56,.4,1.19,.51,1.9,.1,.67,.15,1.35,.14,2.03,0,1.39-.18,2.58-.53,3.56Z"/></g></g></g></svg>