<?xml version="1.0" encoding="UTF-8"?><svg xmlns="http://www.w3.org/2000/svg" viewBox="0 0 124.52 16.41"><defs><style>.d,.e{fill:#2c7538;}.e{fill-rule:evenodd;}</style></defs><g id="a"/><g id="b"><g id="c"><g><path class="e" d="M78.44,16.41h-8.37c-.87,0-1.74-.06-2.6-.2-.94-.16-1.79-.41-2.54-.76-.62-.29-1.2-.66-1.72-1.1-.99-.88-1.7-2.03-2.03-3.32-.2-.73-.31-1.52-.34-2.39,0-.14,0-.29,0-.43,0-.81,.08-1.62,.25-2.42,.35-1.54,1.06-2.78,2.13-3.71,.81-.69,1.75-1.21,2.76-1.51C67.15,.17,68.51,0,70.07,0l8.15,.05V2.94h-7.9c-.53,0-1.07,.03-1.59,.11-.53,.08-1.02,.2-1.44,.36-.49,.18-.94,.44-1.33,.78-.95,.83-1.43,2.17-1.43,4.01,0,.49,.04,.98,.12,1.47,.2,1.1,.63,1.95,1.31,2.55,.43,.37,.93,.65,1.47,.83,.44,.16,.94,.27,1.48,.34,.47,.06,.94,.09,1.42,.08h8.12v2.94Z"/><path class="e" d="M59.7,16.41h-7.81c-2.02,0-3.6-.5-4.73-1.51-.71-.64-1.22-1.48-1.45-2.42-.16-.6-.24-1.27-.24-2.01,0-.58,.05-1.17,.17-1.74,.16-.74,.44-1.38,.82-1.93,.2-.29,.44-.55,.7-.78,.63-.55,1.38-.95,2.18-1.17,.75-.22,1.6-.33,2.55-.33h7.58v2.6h-7.58c-.98,0-1.73,.27-2.25,.81-.24,.25-.42,.56-.53,.89-.09,.26-.16,.54-.2,.86-.03,.26-.05,.53-.05,.79,0,.31,.02,.62,.07,.92,.05,.32,.13,.6,.24,.85,.11,.27,.27,.52,.48,.73,.32,.33,.72,.56,1.17,.68,.26,.07,.55,.12,.86,.13,.07,0,.15,0,.22,0h7.81v2.6Z"/><rect class="d" x="120.9" y=".11" width="3.62" height="16.18"/><rect class="d" x="21.52" y=".11" width="3.28" height="16.18"/><path class="e" d="M115.31,9.96c.73-.25,1.37-.7,1.86-1.29,.18-.22,.33-.46,.46-.71,.37-.74,.56-1.65,.56-2.73,0-.78-.1-1.47-.29-2.08-.2-.68-.58-1.29-1.1-1.77-.24-.21-.49-.4-.77-.56-.47-.27-1-.46-1.6-.57-.5-.09-1.02-.14-1.53-.14h-13.56V16.3h3.62v-5.95h7.47l3.46,5.95h4.12l-3.73-6.07c.35-.06,.7-.15,1.04-.27Zm-1.67-2.81c-.32,.17-.71,.25-1.18,.25l-9.51-.02V3.06h9.51c.1,0,.2,0,.3,.01,.21,.02,.4,.05,.57,.11,.24,.07,.47,.2,.66,.37,.03,.03,.05,.05,.08,.08,.22,.24,.35,.58,.42,1.02,.03,.19,.04,.39,.04,.59,0,.46-.06,.84-.18,1.14-.08,.2-.2,.38-.35,.53-.1,.1-.22,.18-.34,.24Z"/><path class="e" d="M19.22,10.19c-.07-.31-.18-.6-.32-.88-.15-.29-.35-.56-.59-.79-.26-.26-.56-.47-.88-.65,1-.69,1.49-1.79,1.49-3.28,0-.11,0-.21,0-.32-.06-1.33-.49-2.35-1.29-3.04-.36-.3-.77-.54-1.21-.7-.39-.15-.83-.26-1.32-.33-.48-.07-.97-.1-1.46-.1L0,.16V16.3l14.08-.02c1.02,0,1.9-.13,2.62-.39,.51-.17,.98-.45,1.38-.8,.87-.79,1.3-1.95,1.3-3.47,0-.53-.05-1-.15-1.42ZM3.62,3.01H13.19c.07,0,.14,0,.21,0,.92,.04,1.49,.38,1.73,1.01,.08,.24,.13,.49,.12,.75,0,.17-.01,.34-.05,.51-.13,.67-.54,1.1-1.24,1.26-.25,.06-.52,.09-.78,.08H3.62V3.01ZM15.66,11.96c-.13,.7-.53,1.14-1.21,1.32-.26,.06-.53,.1-.8,.09H3.62v-3.85H13.65c1.37,0,2.06,.63,2.06,1.9,0,.18-.01,.36-.05,.53Z"/><path class="e" d="M43.88,10.13c-.02-.63-.11-1.2-.25-1.73-.24-.91-.74-1.74-1.44-2.37-1.13-1-2.71-1.51-4.73-1.51h-4.19c-.95,0-1.8,.11-2.55,.33-.81,.22-1.55,.63-2.18,1.17-.26,.23-.5,.5-.7,.78-.39,.55-.66,1.19-.82,1.93-.12,.57-.18,1.15-.17,1.74,0,.74,.08,1.41,.24,2.01,.23,.93,.74,1.77,1.45,2.42,1.13,1,2.71,1.51,4.73,1.51h4.19c.95,0,1.8-.11,2.55-.33,.81-.22,1.55-.63,2.18-1.17,.24-.21,.45-.45,.64-.7,.41-.56,.7-1.22,.87-1.98,.12-.57,.18-1.16,.18-1.74,0-.12,0-.24,0-.35Zm-3.63,1.97c-.11,.34-.3,.64-.54,.9-.52,.54-1.27,.81-2.25,.81h-4.19c-.07,0-.15,0-.22,0-.31-.01-.6-.06-.86-.13-.44-.12-.85-.35-1.17-.68-.2-.21-.36-.46-.48-.73-.11-.25-.19-.54-.24-.85-.05-.31-.07-.62-.07-.92,0-.26,.01-.53,.05-.79,.04-.32,.11-.6,.2-.86,.11-.33,.3-.63,.53-.89,.52-.54,1.27-.81,2.25-.81h4.19c.07,0,.15,0,.22,0,.31,.01,.6,.06,.86,.13,.44,.12,.85,.35,1.17,.68,.21,.22,.37,.48,.48,.76,.11,.25,.18,.54,.23,.86,.05,.3,.07,.61,.07,.92,0,.63-.08,1.16-.24,1.61Z"/><path class="e" d="M96.95,10.13c-.02-.63-.11-1.2-.25-1.73-.24-.91-.74-1.74-1.44-2.37-1.13-1-2.71-1.51-4.73-1.51h-4.19c-.95,0-1.8,.11-2.55,.33-.81,.22-1.55,.63-2.18,1.17-.26,.23-.5,.5-.7,.78-.39,.55-.66,1.19-.82,1.93-.12,.57-.18,1.15-.17,1.74,0,.74,.08,1.41,.24,2.01,.23,.93,.74,1.77,1.45,2.42,1.13,1,2.71,1.51,4.73,1.51h4.19c.95,0,1.8-.11,2.55-.33,.81-.22,1.55-.63,2.18-1.17,.24-.21,.45-.45,.64-.7,.41-.56,.7-1.22,.87-1.98,.12-.57,.18-1.16,.18-1.74,0-.12,0-.24,0-.35Zm-3.63,1.97c-.11,.34-.3,.64-.54,.9-.52,.54-1.27,.81-2.25,.81h-4.19c-.07,0-.15,0-.22,0-.31-.01-.6-.06-.86-.13-.44-.12-.85-.35-1.17-.68-.2-.21-.36-.46-.48-.73-.11-.25-.19-.54-.24-.85-.05-.31-.07-.62-.07-.92,0-.26,.01-.53,.05-.79,.04-.32,.11-.6,.2-.86,.11-.33,.3-.63,.53-.89,.52-.54,1.27-.81,2.25-.81h4.19c.07,0,.15,0,.22,0,.31,.01,.6,.06,.86,.13,.44,.12,.85,.35,1.17,.68,.21,.22,.37,.48,.48,.76,.11,.25,.18,.54,.23,.86,.05,.3,.07,.61,.07,.92,0,.63-.08,1.16-.24,1.61Z"/></g></g></g></svg>