<?xml version="1.0" encoding="UTF-8"?><svg xmlns="http://www.w3.org/2000/svg" viewBox="0 0 45 10.92"><defs><style>.d,.e{fill:#2c7538;}.e{fill-rule:evenodd;}</style></defs><g id="a"/><g id="b"><g id="c"><g><g><path class="d" d="M5.67,1.02C5.34,.41,4.71,.01,4.02,0c-.83,0-1.36,.53-1.54,.76-.27-.09-.65-.15-1.07-.04C.64,.94,.07,1.63,0,2.42c-.06,.81,.39,1.56,1.14,1.9,.1,.2,.4,.71,1.05,.87,.01,0,.03,0,.04,0l.37,.52v1.39c0,.1,.08,.18,.18,.18h1.58c.1,0,.18-.08,.18-.18v-1.38l.48-.67s.01-.02,.02-.04c.13-.07,.23-.16,.31-.23,.98-.02,1.82-.81,1.87-1.8,.05-.94-.63-1.79-1.56-1.97Zm-1.22,4.21l-.23,.32s-.03,.07-.03,.11v1.26h-1.21v-1.26s-.01-.08-.03-.11l-.23-.32h0c.31-.03,.55-.15,.69-.24,.19,.12,.56,.28,1.02,.23h.02Zm2.47-2.25c-.04,.83-.76,1.5-1.6,1.5h-.02s-.08,.02-.11,.05c-.05,.06-.16,.16-.32,.24-.03,.02-.07,.03-.11,.05-.09,.04-.19,.07-.3,.09-.02,0-.04,0-.06,0-.44,.05-.77-.15-.9-.23-.05-.04-.13-.04-.18,0-.06,.04-.28,.19-.6,.23-.08,0-.16,.01-.24,0-.05,0-.1-.01-.15-.02-.02,0-.03,0-.05-.01-.6-.15-.84-.68-.87-.74-.01-.04-.05-.07-.08-.08-.65-.27-1.05-.91-1-1.61,.05-.66,.53-1.24,1.17-1.42,.13-.04,.26-.05,.39-.05,.24,0,.45,.06,.6,.12,.07,.03,.15,0,.19-.06,.02-.03,.49-.74,1.35-.72,.59,0,1.15,.37,1.41,.92,.02,.05,.07,.08,.12,.09,.81,.12,1.42,.84,1.37,1.65Z"/><path class="d" d="M5.33,4.23c-.08,0-.16-.06-.17-.15-.02-.09,.05-.18,.14-.2,.14-.02,.41-.1,.65-.33,.2-.19,.29-.41,.33-.56,.02-.09,.12-.15,.21-.12,.09,.02,.15,.12,.12,.21-.05,.19-.17,.48-.42,.73-.31,.3-.66,.39-.84,.42,0,0-.02,0-.03,0Z"/></g><g><path class="e" d="M22.48,4.98h-1.37c-.14,0-.28-.01-.42-.03-.15-.03-.29-.07-.42-.12-.1-.05-.2-.11-.28-.18-.16-.14-.28-.33-.33-.54-.03-.12-.05-.25-.06-.39,0-.02,0-.05,0-.07,0-.13,.01-.27,.04-.4,.06-.25,.17-.45,.35-.61,.13-.11,.28-.2,.45-.25,.19-.06,.41-.09,.67-.09h1.33v.48h-1.29c-.09,0-.17,0-.26,.02-.09,.01-.17,.03-.24,.06-.08,.03-.15,.07-.22,.13-.16,.14-.23,.35-.23,.65,0,.08,0,.16,.02,.24,.03,.18,.1,.32,.21,.42,.07,.06,.15,.11,.24,.14,.07,.03,.15,.04,.24,.06,.08,0,.15,.01,.23,.01h1.33v.48Z"/><path class="e" d="M19.42,4.98h-1.27c-.33,0-.59-.08-.77-.25-.12-.1-.2-.24-.24-.39-.03-.1-.04-.21-.04-.33,0-.1,0-.19,.03-.28,.03-.12,.07-.23,.13-.31,.03-.05,.07-.09,.11-.13,.1-.09,.22-.16,.36-.19,.12-.04,.26-.05,.42-.05h1.24v.42h-1.24c-.16,0-.28,.04-.37,.13-.04,.04-.07,.09-.09,.14-.02,.04-.03,.09-.03,.14,0,.04,0,.09,0,.13,0,.05,0,.1,.01,.15,0,.05,.02,.1,.04,.14,.02,.04,.04,.08,.08,.12,.05,.05,.12,.09,.19,.11,.04,.01,.09,.02,.14,.02,.01,0,.02,0,.04,0h1.27v.42Z"/><rect class="d" x="29.41" y="2.32" width=".59" height="2.64"/><rect class="d" x="13.18" y="2.32" width=".54" height="2.64"/><path class="e" d="M28.5,3.93c.12-.04,.22-.11,.3-.21,.03-.04,.05-.07,.08-.12,.06-.12,.09-.27,.09-.45,0-.13-.02-.24-.05-.34-.03-.11-.1-.21-.18-.29-.04-.03-.08-.07-.13-.09-.08-.04-.16-.07-.26-.09-.08-.02-.17-.02-.25-.02h-2.21v2.64h.59v-.97h1.22l.57,.97h.67l-.61-.99c.06,0,.11-.02,.17-.04Zm-.27-.46c-.05,.03-.12,.04-.19,.04h-1.55v-.71h1.55s.03,0,.05,0c.03,0,.07,0,.09,.02,.04,.01,.08,.03,.11,.06h.01c.04,.05,.06,.11,.07,.18,0,.03,0,.06,0,.1,0,.07,0,.14-.03,.19-.01,.03-.03,.06-.06,.09-.02,.02-.04,.03-.06,.04Z"/><path class="e" d="M12.81,3.96s-.03-.1-.05-.14c-.03-.05-.06-.09-.1-.13-.04-.04-.09-.08-.14-.11,.16-.11,.24-.29,.24-.54,0-.02,0-.04,0-.05,0-.22-.08-.38-.21-.5-.06-.05-.13-.09-.2-.11-.06-.02-.14-.04-.22-.05-.08-.01-.16-.02-.24-.02h-2.22v2.64h2.3c.17,0,.31-.02,.43-.07,.08-.03,.16-.07,.22-.13,.14-.13,.21-.32,.21-.57,0-.09,0-.16-.02-.23Zm-2.55-1.17h1.56s.02,0,.03,0c.15,0,.24,.06,.28,.16,.01,.04,.02,.08,.02,.12,0,.03,0,.06,0,.08-.02,.11-.09,.18-.2,.21-.04,0-.08,.01-.13,.01h-1.56v-.59Zm1.97,1.46c-.02,.11-.09,.19-.2,.22-.04,.01-.09,.02-.13,.02h-1.64v-.63h1.64c.22,0,.34,.1,.34,.31,0,.03,0,.06,0,.09Z"/><path class="e" d="M16.83,3.95c0-.1-.02-.2-.04-.28-.04-.15-.12-.28-.23-.39-.18-.16-.44-.25-.77-.25h-.68c-.15,0-.29,.02-.42,.05-.13,.04-.25,.1-.36,.19-.04,.04-.08,.08-.11,.13-.06,.09-.11,.19-.13,.31-.02,.09-.03,.19-.03,.28,0,.12,.01,.23,.04,.33,.04,.15,.12,.29,.24,.39,.18,.16,.44,.25,.77,.25h.68c.15,0,.29-.02,.42-.05,.13-.04,.25-.1,.36-.19,.04-.03,.07-.07,.11-.11,.07-.09,.11-.2,.14-.32,.02-.09,.03-.19,.03-.28,0-.02,0-.04,0-.06Zm-.59,.32c-.02,.05-.05,.1-.09,.15-.08,.09-.21,.13-.37,.13h-.68s-.02,0-.04,0c-.05,0-.1,0-.14-.02-.07-.02-.14-.06-.19-.11-.03-.03-.06-.08-.08-.12-.02-.04-.03-.09-.04-.14,0-.05-.01-.1-.01-.15,0-.04,0-.09,0-.13,0-.05,.02-.1,.03-.14,.02-.05,.05-.1,.09-.14,.08-.09,.21-.13,.37-.13h.68s.02,0,.04,0c.05,0,.1,0,.14,.02,.07,.02,.14,.06,.19,.11,.03,.04,.06,.08,.08,.12,.02,.04,.03,.09,.04,.14,0,.05,.01,.1,.01,.15,0,.1-.01,.19-.04,.26Z"/><path class="e" d="M25.5,3.95c0-.1-.02-.2-.04-.28-.04-.15-.12-.28-.23-.39-.18-.16-.44-.25-.77-.25h-.68c-.15,0-.29,.02-.42,.05-.13,.04-.25,.1-.36,.19-.04,.04-.08,.08-.11,.13-.06,.09-.11,.19-.13,.31-.02,.09-.03,.19-.03,.28,0,.12,.01,.23,.04,.33,.04,.15,.12,.29,.24,.39,.18,.16,.44,.25,.77,.25h.68c.15,0,.29-.02,.42-.05,.13-.04,.25-.1,.36-.19,.04-.03,.07-.07,.11-.11,.07-.09,.11-.2,.14-.32,.02-.09,.03-.19,.03-.28,0-.02,0-.04,0-.06Zm-.59,.32c-.02,.05-.05,.1-.09,.15-.08,.09-.21,.13-.37,.13h-.68s-.02,0-.04,0c-.05,0-.1,0-.14-.02-.07-.02-.14-.06-.19-.11-.03-.03-.06-.08-.08-.12-.02-.04-.03-.09-.04-.14,0-.05-.01-.1-.01-.15,0-.04,0-.09,0-.13,0-.05,.02-.1,.03-.14,.02-.05,.05-.1,.09-.14,.09-.09,.21-.13,.37-.13h.68s.02,0,.04,0c.05,0,.1,0,.14,.02,.07,.02,.14,.06,.19,.11,.03,.04,.06,.08,.08,.12,.02,.04,.03,.09,.04,.14,0,.05,.01,.1,.01,.15,0,.1-.01,.19-.04,.26Z"/></g></g></g></g></svg>