<?xml version="1.0" encoding="UTF-8"?><svg xmlns="http://www.w3.org/2000/svg" viewBox="0 0 66 16.02"><defs><style>.d,.e{fill:#2c7538;}.e{fill-rule:evenodd;}</style></defs><g id="a"/><g id="b"><g id="c"><g><g><path class="d" d="M12.47,2.25C11.76,.91,10.35,.03,8.85,0c-1.82-.02-2.99,1.17-3.39,1.68-.6-.19-1.44-.33-2.36-.08C1.41,2.06,.14,3.59,.01,5.33c-.13,1.77,.87,3.43,2.5,4.17,.22,.43,.89,1.55,2.32,1.9,.03,0,.06,.01,.09,.02l.82,1.14v3.05c0,.23,.18,.41,.41,.41h3.48c.23,0,.41-.18,.41-.41v-3.04l1.05-1.47s.03-.05,.04-.08c.29-.16,.51-.34,.68-.5,2.17-.05,4-1.79,4.11-3.95,.11-2.07-1.38-3.94-3.43-4.33Zm-2.68,9.26l-.5,.7c-.05,.07-.08,.15-.08,.24v2.76h-2.67v-2.77c0-.09-.03-.17-.08-.24l-.5-.7h0c.68-.08,1.21-.33,1.52-.52,.43,.26,1.23,.61,2.25,.51,.02,0,.03,0,.05,0,.01,0,.02,0,.03,0l-.03,.04Zm5.42-4.97c-.1,1.83-1.67,3.3-3.52,3.3h-.04c-.1,0-.19,.04-.25,.1-.12,.12-.36,.34-.71,.53-.07,.04-.15,.08-.24,.11-.19,.09-.42,.15-.67,.19-.04,0-.09,.01-.13,.02-.97,.1-1.7-.32-1.97-.51-.12-.08-.28-.08-.4,0-.13,.09-.62,.42-1.32,.51-.17,.02-.35,.03-.54,.01-.11,0-.22-.03-.33-.05-.04,0-.08-.01-.11-.03-1.31-.32-1.85-1.5-1.91-1.63-.03-.08-.1-.15-.18-.18-1.43-.59-2.32-2.01-2.2-3.53,.11-1.45,1.16-2.74,2.57-3.12,.29-.08,.58-.11,.85-.11,.53,0,.99,.13,1.33,.26,.15,.06,.32,0,.41-.13,.04-.07,1.08-1.64,2.97-1.59,1.31,.02,2.52,.82,3.1,2.02,.05,.1,.15,.18,.26,.19,1.79,.26,3.11,1.85,3.02,3.64Z"/><path class="d" d="M11.73,9.31c-.18,0-.35-.13-.38-.32-.03-.21,.11-.4,.32-.44,.31-.05,.91-.21,1.43-.72,.44-.43,.64-.91,.73-1.24,.05-.2,.26-.33,.47-.27,.2,.05,.33,.26,.27,.47-.11,.42-.37,1.05-.93,1.6-.67,.65-1.44,.86-1.84,.92-.02,0-.04,0-.06,0Z"/></g><g><path class="e" d="M49.45,10.95h-3.01c-.31,0-.62-.02-.93-.07-.34-.06-.64-.15-.91-.27-.22-.1-.43-.24-.62-.4-.36-.32-.61-.73-.73-1.19-.07-.26-.11-.55-.12-.86,0-.05,0-.1,0-.16,0-.29,.03-.58,.09-.87,.12-.55,.38-1,.76-1.33,.29-.25,.63-.43,.99-.54,.42-.13,.91-.2,1.47-.2l2.93,.02v1.04h-2.84c-.19,0-.38,.01-.57,.04-.19,.03-.36,.07-.52,.13-.17,.06-.34,.16-.48,.28-.34,.3-.51,.78-.51,1.44,0,.18,.01,.35,.04,.53,.07,.4,.23,.7,.47,.91,.15,.13,.33,.23,.53,.3,.16,.06,.34,.1,.53,.12,.17,.02,.34,.03,.51,.03h2.92v1.06Z"/><path class="e" d="M42.71,10.95h-2.8c-.73,0-1.29-.18-1.7-.54-.26-.23-.44-.53-.52-.87-.06-.22-.09-.46-.09-.72,0-.21,.02-.42,.06-.62,.06-.27,.16-.5,.3-.69,.07-.1,.16-.2,.25-.28,.23-.2,.49-.34,.78-.42,.27-.08,.58-.12,.92-.12h2.72v.93h-2.72c-.35,0-.62,.1-.81,.29-.09,.09-.15,.2-.19,.32-.03,.09-.06,.19-.07,.31-.01,.09-.02,.19-.02,.28,0,.11,0,.22,.02,.33,.02,.11,.05,.22,.09,.31,.04,.1,.1,.19,.17,.26,.12,.12,.26,.2,.42,.24,.09,.03,.2,.04,.31,.05,.03,0,.05,0,.08,0h2.8v.93Z"/><rect class="d" x="64.7" y="5.1" width="1.3" height="5.81"/><rect class="d" x="29" y="5.1" width="1.18" height="5.81"/><path class="e" d="M62.69,8.64c.26-.09,.49-.25,.67-.46,.06-.08,.12-.16,.17-.25,.13-.26,.2-.59,.2-.98,0-.28-.03-.53-.1-.75-.07-.24-.21-.46-.4-.64-.08-.08-.18-.14-.28-.2-.17-.1-.36-.16-.58-.21-.18-.03-.36-.05-.55-.05h-4.87v5.81h1.3v-2.14h2.68l1.24,2.14h1.48l-1.34-2.18c.13-.02,.25-.05,.37-.1Zm-.6-1.01c-.11,.06-.26,.09-.43,.09h-3.41v-1.56h3.41s.07,0,.11,0c.07,0,.14,.02,.21,.04,.09,.03,.17,.07,.24,.13,0,0,.02,.02,.03,.03,.08,.09,.13,.21,.15,.37,0,.07,.01,.14,.01,.21,0,.16-.02,.3-.06,.41-.03,.07-.07,.14-.13,.19-.04,.03-.08,.06-.12,.09Z"/><path class="e" d="M28.17,8.72c-.03-.11-.06-.22-.12-.32-.06-.1-.13-.2-.21-.28-.09-.09-.2-.17-.32-.23,.36-.25,.54-.64,.54-1.18,0-.04,0-.08,0-.12-.02-.48-.18-.84-.46-1.09-.13-.11-.28-.19-.44-.25-.14-.05-.3-.09-.47-.12-.17-.02-.35-.04-.52-.03l-4.89,.02v5.8h5.06c.37,0,.68-.05,.94-.15,.18-.06,.35-.16,.49-.29,.31-.28,.47-.7,.47-1.25,0-.19-.02-.36-.05-.51Zm-5.6-2.58h3.44s.05,0,.08,0c.33,.02,.54,.14,.62,.36,.03,.09,.04,.18,.04,.27,0,.06,0,.12-.02,.18-.05,.24-.2,.39-.44,.45-.09,.02-.19,.03-.28,.03h-3.44v-1.3Zm4.33,3.22c-.05,.25-.19,.41-.44,.47-.09,.02-.19,.03-.29,.03h-3.6v-1.38h3.6c.49,0,.74,.23,.74,.68,0,.06,0,.13-.02,.19Z"/><path class="e" d="M37.03,8.69c0-.23-.04-.43-.09-.62-.08-.33-.26-.62-.52-.85-.41-.36-.97-.54-1.7-.54h-1.5c-.34,0-.65,.04-.92,.12-.29,.08-.56,.22-.78,.42-.09,.08-.18,.18-.25,.28-.14,.2-.24,.43-.3,.69-.04,.21-.06,.41-.06,.62,0,.26,.03,.51,.09,.72,.08,.33,.27,.64,.52,.87,.41,.36,.97,.54,1.7,.54h1.5c.34,0,.65-.04,.92-.12,.29-.08,.56-.22,.78-.42,.09-.08,.16-.16,.23-.25,.15-.2,.25-.44,.31-.71,.04-.21,.07-.42,.06-.63,0-.04,0-.08,0-.13Zm-1.3,.71c-.04,.12-.11,.23-.19,.32-.19,.2-.46,.29-.81,.29h-1.5s-.05,0-.08,0c-.11,0-.22-.02-.31-.05-.16-.04-.3-.13-.42-.24-.07-.08-.13-.17-.17-.26-.04-.09-.07-.19-.09-.31-.02-.11-.03-.22-.02-.33,0-.1,0-.19,.02-.28,.01-.11,.04-.22,.07-.31,.04-.12,.11-.23,.19-.32,.19-.2,.46-.29,.81-.29h1.5s.05,0,.08,0c.11,0,.22,.02,.31,.05,.16,.04,.3,.13,.42,.24,.07,.08,.13,.17,.17,.27,.04,.09,.07,.19,.08,.31,.02,.11,.02,.22,.02,.33,0,.23-.03,.42-.09,.58Z"/><path class="e" d="M56.1,8.69c0-.23-.04-.43-.09-.62-.08-.33-.26-.62-.52-.85-.41-.36-.97-.54-1.7-.54h-1.5c-.34,0-.65,.04-.92,.12-.29,.08-.56,.22-.78,.42-.09,.08-.18,.18-.25,.28-.14,.2-.24,.43-.3,.69-.04,.21-.06,.41-.06,.62,0,.26,.03,.51,.09,.72,.08,.33,.27,.64,.52,.87,.41,.36,.97,.54,1.7,.54h1.5c.34,0,.65-.04,.92-.12,.29-.08,.56-.22,.78-.42,.09-.08,.16-.16,.23-.25,.15-.2,.25-.44,.31-.71,.04-.21,.07-.42,.06-.63,0-.04,0-.08,0-.13Zm-1.3,.71c-.04,.12-.11,.23-.19,.32-.19,.2-.46,.29-.81,.29h-1.5s-.05,0-.08,0c-.11,0-.22-.02-.31-.05-.16-.04-.3-.13-.42-.24-.07-.08-.13-.17-.17-.26-.04-.09-.07-.19-.09-.31-.02-.11-.03-.22-.02-.33,0-.1,0-.19,.02-.28,.01-.11,.04-.22,.07-.31,.04-.12,.11-.23,.19-.32,.19-.2,.46-.29,.81-.29h1.5s.05,0,.08,0c.11,0,.22,.02,.31,.05,.16,.04,.3,.13,.42,.24,.07,.08,.13,.17,.17,.27,.04,.09,.07,.19,.08,.31,.02,.11,.02,.22,.02,.33,0,.23-.03,.42-.09,.58Z"/></g></g></g></g></svg>