<?xml version="1.0" encoding="UTF-8"?><svg xmlns="http://www.w3.org/2000/svg" viewBox="0 0 102 24.76"><defs><style>.d,.e{fill:#2c7538;}.e{fill-rule:evenodd;}</style></defs><g id="a"/><g id="b"><g id="c"><g><g><path class="d" d="M19.28,3.48C18.17,1.4,16,.04,13.67,0c-2.81-.03-4.61,1.81-5.25,2.6-.93-.3-2.22-.51-3.65-.12C2.18,3.18,.22,5.55,.02,8.24c-.21,2.74,1.34,5.31,3.86,6.45,.33,.67,1.38,2.4,3.59,2.94,.04,.01,.09,.02,.13,.03l1.26,1.77v4.71c0,.35,.28,.63,.63,.63h5.39c.35,0,.63-.28,.63-.63v-4.7l1.62-2.27s.05-.08,.06-.12c.44-.25,.79-.53,1.04-.77,3.35-.08,6.18-2.77,6.35-6.11,.17-3.2-2.14-6.08-5.3-6.68Zm-4.14,14.31l-.77,1.08c-.08,.11-.12,.23-.12,.37v4.27h-4.12v-4.29c0-.13-.04-.26-.12-.37l-.78-1.09h-.01s0-.02,.01-.02c1.05-.1,1.88-.5,2.35-.79,.66,.4,1.9,.95,3.48,.78,.03,0,.05,0,.08-.01,.02,0,.03,0,.04,0l-.04,.06Zm8.38-7.68c-.15,2.83-2.59,5.1-5.44,5.1h-.06c-.16,0-.29,.06-.39,.16-.18,.19-.56,.53-1.09,.82-.11,.06-.23,.12-.37,.17-.3,.13-.65,.24-1.03,.3-.07,.01-.13,.02-.2,.03-1.5,.16-2.63-.5-3.05-.79-.18-.13-.43-.13-.62,0-.19,.13-.96,.65-2.04,.78-.26,.03-.54,.04-.83,.02-.17-.01-.33-.04-.51-.07-.06-.01-.12-.02-.17-.04-2.03-.5-2.86-2.32-2.95-2.53-.05-.13-.16-.23-.28-.28-2.22-.91-3.58-3.11-3.4-5.46,.17-2.25,1.8-4.23,3.97-4.82,.46-.12,.9-.17,1.32-.17,.82,0,1.53,.19,2.05,.39,.24,.09,.5,0,.64-.2,.07-.11,1.68-2.53,4.6-2.46,2.02,.03,3.9,1.26,4.79,3.13,.07,.16,.23,.27,.41,.3,2.76,.4,4.81,2.86,4.67,5.62Z"/><path class="d" d="M18.13,14.39c-.28,0-.54-.21-.58-.5-.05-.32,.17-.63,.49-.68,.48-.08,1.4-.33,2.21-1.11,.68-.66,.99-1.41,1.12-1.92,.08-.32,.41-.5,.72-.42,.32,.08,.5,.41,.42,.72-.17,.66-.57,1.62-1.44,2.47-1.04,1-2.23,1.32-2.84,1.42-.03,0-.06,0-.1,0Z"/></g><g><path class="e" d="M76.42,16.93h-4.65c-.48,0-.96-.03-1.44-.11-.52-.09-1-.23-1.41-.42-.35-.16-.67-.36-.95-.61-.55-.49-.94-1.13-1.13-1.84-.11-.4-.17-.85-.19-1.33,0-.08,0-.16,0-.24,0-.45,.04-.9,.14-1.34,.19-.85,.59-1.54,1.18-2.06,.45-.38,.97-.67,1.53-.84,.65-.21,1.41-.31,2.27-.3l4.52,.03v1.61h-4.39c-.3,0-.59,.02-.88,.06-.3,.04-.56,.11-.8,.2-.27,.1-.52,.24-.74,.43-.53,.46-.79,1.2-.79,2.22,0,.27,.02,.55,.07,.82,.11,.61,.35,1.08,.73,1.41,.24,.21,.52,.36,.82,.46,.25,.09,.52,.15,.82,.19,.26,.03,.52,.05,.79,.05h4.51v1.63Z"/><path class="e" d="M66.01,16.93h-4.33c-1.12,0-2-.28-2.63-.84-.4-.36-.68-.82-.81-1.34-.09-.33-.14-.71-.14-1.12,0-.32,.03-.65,.1-.96,.09-.41,.24-.77,.46-1.07,.11-.16,.24-.3,.39-.43,.35-.3,.76-.53,1.21-.65,.42-.12,.89-.18,1.42-.18h4.21v1.44h-4.21c-.54,0-.96,.15-1.25,.45-.13,.14-.23,.31-.3,.49-.05,.14-.09,.3-.11,.48-.02,.15-.03,.29-.03,.44,0,.17,.01,.34,.04,.51,.03,.18,.07,.33,.13,.47,.06,.15,.15,.29,.26,.41,.18,.18,.4,.31,.65,.38,.15,.04,.31,.06,.48,.07,.04,0,.08,0,.12,0h4.33v1.44Z"/><rect class="d" x="99.99" y="7.88" width="2.01" height="8.98"/><rect class="d" x="44.82" y="7.88" width="1.82" height="8.98"/><path class="e" d="M96.89,13.35c.4-.14,.76-.39,1.03-.72,.1-.12,.18-.25,.26-.39,.21-.41,.31-.91,.31-1.52,0-.43-.05-.82-.16-1.15-.11-.38-.32-.72-.61-.98-.13-.12-.27-.22-.43-.31-.26-.15-.56-.25-.89-.32-.28-.05-.56-.08-.85-.08h-7.53v8.98h2.01v-3.3h4.15l1.92,3.3h2.29l-2.07-3.37c.2-.03,.39-.08,.58-.15Zm-.92-1.56c-.18,.09-.39,.14-.66,.14h-5.28v-2.41h5.28c.05,0,.11,0,.16,0,.12,0,.22,.03,.32,.06,.14,.04,.26,.11,.37,.2,.02,.01,.03,.03,.04,.04,.12,.13,.2,.32,.23,.57,.01,.11,.02,.22,.02,.33,0,.25-.03,.46-.1,.63-.04,.11-.11,.21-.2,.3-.06,.05-.12,.1-.19,.14Z"/><path class="e" d="M43.54,13.47c-.04-.17-.1-.33-.18-.49-.09-.16-.2-.31-.33-.44-.15-.14-.31-.26-.49-.36,.55-.39,.83-.99,.83-1.82,0-.06,0-.12,0-.18-.03-.74-.27-1.3-.72-1.69-.2-.17-.43-.3-.67-.39-.22-.08-.46-.14-.73-.18-.27-.04-.54-.05-.81-.05l-7.56,.03v8.96h7.82c.57-.01,1.05-.08,1.45-.23,.28-.1,.54-.25,.76-.45,.48-.44,.72-1.08,.72-1.93,0-.29-.03-.55-.08-.79Zm-8.66-3.99h5.31s.08,0,.12,0c.51,.02,.83,.21,.96,.56,.05,.13,.07,.27,.07,.42,0,.1,0,.19-.03,.28-.07,.37-.3,.61-.69,.7-.14,.03-.29,.05-.43,.05h-5.31v-2.01Zm6.68,4.97c-.07,.39-.3,.63-.67,.73-.15,.04-.29,.05-.44,.05h-5.57v-2.14h5.57c.76,0,1.14,.35,1.14,1.06,0,.1,0,.2-.03,.3Z"/><path class="e" d="M57.23,13.44c-.01-.35-.06-.67-.14-.96-.13-.51-.41-.96-.8-1.31-.63-.56-1.5-.84-2.63-.84h-2.32c-.53,0-1,.06-1.42,.18-.45,.12-.86,.35-1.21,.65-.15,.13-.28,.27-.39,.43-.21,.3-.37,.66-.46,1.07-.07,.32-.1,.64-.1,.96,0,.41,.05,.78,.14,1.12,.13,.52,.41,.98,.81,1.34,.63,.56,1.5,.84,2.63,.84h2.32c.53,0,1-.06,1.42-.18,.45-.12,.86-.35,1.21-.65,.13-.12,.25-.25,.36-.39,.23-.31,.39-.68,.49-1.1,.07-.32,.1-.64,.1-.97,0-.07,0-.13,0-.2Zm-2.01,1.09c-.06,.19-.17,.36-.3,.5-.29,.3-.71,.45-1.25,.45h-2.32s-.08,0-.12,0c-.17,0-.33-.03-.48-.07-.25-.06-.47-.19-.65-.38-.11-.12-.2-.26-.26-.41-.06-.14-.1-.3-.13-.47-.03-.17-.04-.34-.04-.51,0-.15,0-.29,.03-.44,.02-.18,.06-.33,.11-.48,.06-.18,.16-.35,.3-.49,.29-.3,.71-.45,1.25-.45h2.32s.08,0,.12,0c.17,0,.33,.03,.48,.07,.25,.06,.47,.19,.65,.38,.12,.12,.21,.26,.27,.42,.06,.14,.1,.3,.13,.48,.03,.17,.04,.34,.04,.51,0,.35-.04,.65-.13,.89Z"/><path class="e" d="M86.69,13.44c-.01-.35-.06-.67-.14-.96-.13-.51-.41-.96-.8-1.31-.63-.56-1.5-.84-2.63-.84h-2.32c-.53,0-1,.06-1.42,.18-.45,.12-.86,.35-1.21,.65-.15,.13-.28,.27-.39,.43-.21,.3-.37,.66-.46,1.07-.07,.32-.1,.64-.1,.96,0,.41,.05,.78,.14,1.12,.13,.52,.41,.98,.81,1.34,.63,.56,1.5,.84,2.63,.84h2.32c.53,0,1-.06,1.42-.18,.45-.12,.86-.35,1.21-.65,.13-.12,.25-.25,.36-.39,.23-.31,.39-.68,.49-1.1,.07-.32,.1-.64,.1-.97,0-.07,0-.13,0-.2Zm-2.01,1.09c-.06,.19-.17,.36-.3,.5-.29,.3-.71,.45-1.25,.45h-2.32s-.08,0-.12,0c-.17,0-.33-.03-.48-.07-.25-.06-.47-.19-.65-.38-.11-.12-.2-.26-.26-.41-.06-.14-.1-.3-.13-.47-.03-.17-.04-.34-.04-.51,0-.15,0-.29,.03-.44,.02-.18,.06-.33,.11-.48,.06-.18,.16-.35,.3-.49,.29-.3,.71-.45,1.25-.45h2.32s.08,0,.12,0c.17,0,.33,.03,.48,.07,.25,.06,.47,.19,.65,.38,.12,.12,.21,.26,.27,.42,.06,.14,.1,.3,.13,.48,.03,.17,.04,.34,.04,.51,0,.35-.04,.65-.13,.89Z"/></g></g></g></g></svg>